<svg xmlns="http://www.w3.org/2000/svg" xmlns:xlink="http://www.w3.org/1999/xlink" width="66.971" height="70.495" viewBox="0 0 66.971 70.495"><defs><linearGradient id="a" x1="0.604" y1="0.755" x2="0.828" y2="0.059" gradientUnits="objectBoundingBox"><stop offset="0" stop-color="#ff5d0e"/><stop offset="1" stop-color="#ffad84"/></linearGradient><linearGradient id="b" x1="0.91" y1="0.096" x2="0.3" y2="0.738" gradientUnits="objectBoundingBox"><stop offset="0" stop-color="#5a79f3"/><stop offset="1" stop-color="#86a0ff"/></linearGradient><filter id="c" x="0" y="0" width="66.971" height="70.495" filterUnits="userSpaceOnUse"><feOffset dy="3" input="SourceAlpha"/><feGaussianBlur stdDeviation="7.5" result="d"/><feFlood flood-color="#7a95fc" flood-opacity="0.675"/><feComposite operator="in" in2="d"/><feComposite in="SourceGraphic"/></filter><linearGradient id="e" x1="0.991" y1="0.824" x2="0.557" y2="0.185" gradientUnits="objectBoundingBox"><stop offset="0.34" stop-color="#9b5cff"/><stop offset="0.474" stop-color="#856eff"/><stop offset="0.631" stop-color="#737dff"/><stop offset="0.8" stop-color="#6986ff"/><stop offset="0.997" stop-color="#6689ff"/></linearGradient></defs><g transform="translate(-966.896 -593.268)"><g transform="translate(989.396 608.62)"><g transform="translate(0 0)"><g transform="translate(8.325)"><path d="M1052.9,621.72h-12.656a3.489,3.489,0,0,0-3.489,3.489v17.882a1.173,1.173,0,0,0,1.786,1l2.51-1.536a1.172,1.172,0,0,1,1.225,0l2.232,1.366a3.954,3.954,0,0,0,4.129,0l2.232-1.366a1.172,1.172,0,0,1,1.225,0l2.51,1.536a1.173,1.173,0,0,0,1.786-1V625.209A3.489,3.489,0,0,0,1052.9,621.72Z" transform="translate(-1036.753 -621.72)" fill="url(#a)"/></g><g transform="translate(0 4.148)"><g transform="matrix(1, 0, 0, 1, -22.5, -19.5)" filter="url(#c)"><path d="M1027.807,635.181h-14.162a3.9,3.9,0,0,0-3.9,3.9V659.1a1.313,1.313,0,0,0,2,1.12l2.809-1.719a1.312,1.312,0,0,1,1.371,0l2.5,1.528a4.425,4.425,0,0,0,4.62,0l2.5-1.528a1.311,1.311,0,0,1,1.37,0l2.809,1.719a1.313,1.313,0,0,0,2-1.12V639.086A3.9,3.9,0,0,0,1027.807,635.181Z" transform="translate(-987.24 -615.68)" fill="url(#b)"/></g></g><path d="M1051.8,636.679a3.9,3.9,0,0,0-3.9-3.9h-11.139c0,.028,0,.055,0,.083v.659h9.742a3.9,3.9,0,0,1,3.905,3.9v13.068l.466-.285a1.173,1.173,0,0,1,.934-.127v-13.4Z" transform="translate(-1028.428 -629.367)" opacity="0.1" fill="url(#e)"/><g transform="translate(4.07 10.908)"><path d="M1035.734,659.2H1023.99a1.044,1.044,0,0,1-1.044-1.044h0a1.044,1.044,0,0,1,1.044-1.044h11.745a1.044,1.044,0,0,1,1.044,1.044h0A1.044,1.044,0,0,1,1035.734,659.2Z" transform="translate(-1022.946 -657.114)" fill="#fdfeff"/><path d="M1035.734,675.245H1023.99a1.044,1.044,0,0,1-1.044-1.044h0a1.044,1.044,0,0,1,1.044-1.044h11.745a1.044,1.044,0,0,1,1.044,1.044h0A1.044,1.044,0,0,1,1035.734,675.245Z" transform="translate(-1022.946 -668.213)" fill="#fdfeff"/><path d="M1029.993,691.289h-6a1.044,1.044,0,0,1-1.044-1.044h0a1.044,1.044,0,0,1,1.044-1.044h6a1.044,1.044,0,0,1,1.044,1.044h0A1.044,1.044,0,0,1,1029.993,691.289Z" transform="translate(-1022.946 -679.312)" fill="#fdfeff"/></g></g></g></g></svg>